<?xml version="1.0" encoding="UTF-8"?>
<svg width="92px" height="12px" viewBox="0 0 92 12" version="1.1" xmlns="http://www.w3.org/2000/svg" xmlns:xlink="http://www.w3.org/1999/xlink">
    <!-- Generator: Sketch 52.2 (67145) - http://www.bohemiancoding.com/sketch -->
    <title>Logotype - Light</title>
    <desc>Created with Sketch.</desc>
    <g id="Symbols" stroke="none" stroke-width="1" fill="none" fill-rule="evenodd">
        <g id="Bravado-Modules/Branding/Logotype---Light" transform="translate(-34.000000, -22.000000)">
            <g id="Logotype---Light" transform="translate(32.000000, 20.000000)">
                <g id="Group">
                    <g id="Logotype---Light">
                        <g id="Logotype---No-Border---Light">
                            <g id="Logo">
                                <rect id="Base" x="0" y="0" width="16" height="16"></rect>
                                <g id="Icon">
                                    <rect id="Base" x="0" y="0" width="16" height="16"></rect>
                                </g>
                                <g id="Page-1" transform="translate(2.666667, 2.666667)" fill="#FFFFFF">
                                    <path d="M10.6666667,0 L10.6666667,1.77777778 C10.6666667,1.95911111 10.6382222,2.13688889 10.5884444,2.304 L10.5884444,2.30755556 C10.3608889,3.02933333 9.68533333,3.55555556 8.88888889,3.55555556 L1.77777778,3.55555556 C0.981333333,3.55555556 0.305777778,3.02933333 0.0782222222,2.30755556 L0.0782222222,2.304 C0.0284444444,2.13688889 0,1.95911111 0,1.77777778 L0,0 L1.77777778,0 L1.77777778,1.06666667 C1.77777778,1.45777778 2.09777778,1.77777778 2.48888889,1.77777778 L8.17777778,1.77777778 C8.56888889,1.77777778 8.88888889,1.45777778 8.88888889,1.06666667 L8.88888889,0 L10.6666667,0 Z" id="Fill-1"></path>
                                    <polygon id="Fill-3" points="10.6666667 5.33333333 9.64266667 7.11111111 8.81422222 7.11111111 6.89066667 10.6666667 3.776 10.6666667 2.94044444 8.88888889 1.91644444 7.11111111 1.02755556 7.11111111 0 5.33333333 2.94044444 5.33333333 3.968 7.11111111 4.992 8.88533333 4.992 8.88888889 5.67466667 8.88888889 6.69866667 7.11111111 7.72622222 5.33333333"></polygon>
                                </g>
                            </g>
                        </g>
                    </g>
                    <path d="M24.954,3.6 C26.802,3.6 27.954,4.404 27.954,5.7 C27.954,6.6 27.402,7.308 26.502,7.548 C27.594,7.752 28.254,8.568 28.254,9.672 C28.254,11.112 27.03,12 25.086,12 L21.09,12 L21.09,3.6 L24.954,3.6 Z M24.858,6.984 C25.578,6.984 26.01,6.636 26.01,6.048 C26.01,5.472 25.578,5.136 24.858,5.148 L22.986,5.148 L22.986,6.984 L24.858,6.984 Z M24.858,10.452 C25.746,10.452 26.298,10.08 26.298,9.432 C26.298,8.82 25.746,8.448 24.858,8.46 L22.986,8.46 L22.986,10.452 L24.858,10.452 Z M38.942,12 L36.794,12 L35.462,9.6 L33.53,9.6 L33.53,12 L31.634,12 L31.634,3.6 L35.282,3.6 C37.478,3.6 38.726,4.656 38.726,6.516 C38.726,7.812 38.174,8.748 37.154,9.228 L38.942,12 Z M33.53,5.172 L33.53,8.016 L35.282,8.016 C36.326,8.016 36.926,7.536 36.926,6.576 C36.926,5.64 36.326,5.172 35.282,5.172 L33.53,5.172 Z M48.526,12 L47.866,10.368 L43.978,10.368 L43.318,12 L41.362,12 L45.01,3.6 L46.966,3.6 L50.554,12 L48.526,12 Z M44.602,8.844 L47.254,8.844 L45.934,5.58 L44.602,8.844 Z M51.87,3.6 L55.17,12 L57.126,12 L60.462,3.6 L58.506,3.6 L56.202,9.936 L53.91,3.6 L51.87,3.6 Z M68.954,12 L68.294,10.368 L64.406,10.368 L63.746,12 L61.79,12 L65.438,3.6 L67.394,3.6 L70.982,12 L68.954,12 Z M65.03,8.844 L67.682,8.844 L66.362,5.58 L65.03,8.844 Z M77.422,3.6 C80.026,3.6 81.838,5.316 81.838,7.8 C81.838,10.272 80.002,12 77.35,12 L73.858,12 L73.858,3.6 L77.422,3.6 Z M77.47,10.404 C78.874,10.404 79.906,9.348 79.906,7.812 C79.906,6.264 78.826,5.196 77.386,5.196 L75.754,5.196 L75.754,10.404 L77.47,10.404 Z M88.998,3.54 C91.566,3.54 93.51,5.364 93.51,7.8 C93.51,10.224 91.566,12.084 88.998,12.084 C86.43,12.084 84.486,10.236 84.486,7.8 C84.486,5.352 86.43,3.54 88.998,3.54 Z M89.022,5.196 C87.606,5.196 86.43,6.324 86.43,7.8 C86.43,9.276 87.618,10.428 89.022,10.428 C90.426,10.428 91.566,9.276 91.566,7.8 C91.566,6.324 90.426,5.196 89.022,5.196 Z" id="bravado" fill="#FFFFFF"></path>
                </g>
            </g>
        </g>
    </g>
</svg>